<?xml version="1.0" standalone="no"?>
<!DOCTYPE svg PUBLIC "-//W3C//DTD SVG 20010904//EN"
 "http://www.w3.org/TR/2001/REC-SVG-20010904/DTD/svg10.dtd">
<svg version="1.0" xmlns="http://www.w3.org/2000/svg"
 width="700.000000pt" height="700.000000pt" viewBox="0 0 700.000000 700.000000"
 preserveAspectRatio="xMidYMid meet">
<metadata>
Created by potrace 1.11, written by Peter Selinger 2001-2013
</metadata>
<g transform="translate(0.000000,700.000000) scale(0.100000,-0.100000)"
fill="#000000" stroke="none">
<path d="M3278 6996 c-1 -2 -42 -6 -89 -10 -47 -4 -95 -8 -105 -10 -10 -2 -46
-7 -79 -11 -32 -4 -68 -9 -80 -11 -11 -2 -45 -8 -75 -14 -142 -26 -259 -56
-415 -107 -371 -121 -706 -291 -1001 -510 -389 -289 -689 -617 -933 -1021
-154 -256 -299 -587 -367 -842 -9 -30 -17 -62 -19 -70 -9 -33 -27 -107 -31
-130 -3 -14 -10 -45 -15 -70 -16 -67 -18 -78 -23 -124 -3 -22 -8 -54 -11 -70
-6 -28 -9 -60 -22 -191 -15 -153 -7 -609 12 -715 2 -14 7 -47 10 -75 7 -73 22
-153 50 -285 119 -553 417 -1127 815 -1570 92 -102 273 -277 359 -346 13 -10
28 -24 35 -29 28 -26 178 -136 251 -185 44 -29 99 -66 122 -81 23 -16 44 -29
47 -29 4 0 25 -12 48 -26 74 -47 312 -162 439 -212 275 -109 569 -188 809
-217 25 -3 56 -7 69 -10 141 -27 666 -26 851 1 462 68 777 166 1154 356 135
69 291 161 409 243 279 192 628 530 812 785 22 30 42 57 45 60 12 12 121 182
173 270 195 334 331 693 406 1067 16 81 32 169 35 196 11 84 18 141 22 167 9
49 11 526 4 605 -16 169 -22 220 -25 225 -2 3 -6 30 -10 60 -7 55 -58 298 -75
355 -138 467 -305 809 -568 1165 -47 63 -88 117 -91 120 -3 3 -38 43 -78 90
-158 188 -436 440 -628 570 -27 18 -52 36 -55 39 -3 3 -14 12 -25 18 -11 7
-67 41 -125 77 -376 230 -837 399 -1255 462 -27 4 -57 9 -65 10 -8 2 -42 6
-76 9 -33 4 -74 9 -90 11 -33 5 -540 14 -546 10z"/>
</g>
</svg>
